<svg id="Capa_1" enable-background="new 0 0 512 512" height="512" viewBox="0 0 512 512" width="512" xmlns="http://www.w3.org/2000/svg"><g><path d="m146.974 233.513c8.907 52.16 54.326 91.866 109.026 91.866 54.699 0 100.119-39.706 109.026-91.866h2.376c17.908 0 32.426-14.518 32.426-32.426 0-17.909-14.518-32.426-32.426-32.426h-.785v-12.01c-43.672-10.31-70.491-33.473-84.272-49.068-19.946 17.822-63.284 48.14-136.96 60.709l-3.769.511c-16.509 1.507-29.443 15.382-29.443 32.284 0 17.908 14.518 32.426 32.426 32.426z"/><path d="m145.384 137.834c90.116-16.778 126.263-61.879 126.628-62.346l13.776-17.639 11.079 19.446c.824 1.405 20.613 34.307 69.749 48.361v-15.041c0-61.091-49.524-110.615-110.616-110.615-61.091 0-110.616 49.524-110.616 110.616z"/><path d="m402.164 422h-4.674c-13.641 0-24.738 11.098-24.738 24.738v35.262h54.151v-35.262c0-13.64-11.098-24.738-24.739-24.738z"/><circle cx="112.173" cy="462" r="20"/><path d="m291.995 350.683c-11.666 3.09-23.761 4.696-35.995 4.696-12.233 0-24.328-1.605-35.994-4.696l35.994 50.48z"/><path d="m62.173 462c0-22.346 14.736-41.312 35-47.698v-88.873l-40.935 19.205c-34.163 16.027-56.238 50.766-56.238 88.502v78.864h112.173c-27.57 0-50-22.43-50-50z"/><path d="m455.762 344.633-40.935-19.205v68.066c24.095 5.731 42.076 27.42 42.076 53.244v65.262h55.097v-78.864c0-37.736-22.075-72.475-56.238-88.503z"/><path d="m384.827 393.495v-82.14l-18.949-8.89c-3.791 4.75-109.878 150.372-109.878 150.372s-106.086-145.621-109.878-150.372l-18.949 8.89v102.947c20.264 6.386 35 25.352 35 47.698 0 27.57-22.43 50-50 50h230.579v-65.262c0-25.823 17.98-47.513 42.075-53.243z"/></g></svg>